<svg class="svg-icon" style="width: 1em; height: 1em;vertical-align: middle;fill: currentColor;overflow: hidden;" viewBox="0 0 1024 1024" version="1.1" xmlns="http://www.w3.org/2000/svg"><path d="M988.357232 408.331749c-25.974171-32.749272-64.850429-51.539286-106.65914-51.539286h-238.03164c13.001252-36.2413 21.59497-75.634633 24.658463-113.742362 4.758154-59.272393-4.350868-111.918432-26.347811-152.243209C614.912117 41.201325 568.835765 10.256504 508.72224 1.324562c-27.236755-4.044519-50.657425 1.184669-69.626291 15.554753-38.336162 29.041206-45.369801 84.31335-53.522589 148.30848-6.513022 51.158563-13.897279 109.145351-38.711573 150.709692-16.555258 27.739664-48.782143 64.614912-137.148865 64.614912h-92.205828c-61.404442 0-111.360629 49.938478-111.360629 111.318129v420.851343c0 61.379651 49.956186 111.318129 111.360629 111.318129h671.76736c30.581806 0 60.612892-10.460147 84.571887-29.453803 23.964307-18.998969 40.994141-45.855001 47.960489-75.622238l92.423638-395.100292c9.514537-40.668313 0.084999-82.765666-25.873236-115.491918zM195.74304 949.776699H117.507094c-20.477592 0-37.132015-16.642028-37.132015-37.094828V491.837612c0-20.454571 16.654423-37.096599 37.132015-37.096599h78.235946v495.035686z m746.217324-442.857139l-92.42895 395.100292c-6.575 28.113304-31.353877 47.756846-60.25696 47.756847H269.966341V449.357765c62.705984-11.970643 109.882006-43.903574 140.630268-95.412757 32.749272-54.866629 41.178305-121.01683 48.612145-179.377257 3.353905-26.370832 6.525417-51.28429 11.565129-70.39305 5.402727-20.497071 10.99493-26.498329 13.148229-28.131012 2.461419-1.8682 7.139887-2.302047 13.884884-1.301542 37.238263 5.530225 63.079624 22.416623 79.004475 51.61366 32.676669 59.893945 18.244606 160.985674-12.903857 229.891248-7.458632 16.500363-6.07032 35.407251 3.720462 50.575968 9.780157 15.156322 26.416872 24.199824 44.498564 24.199825h269.576764c19.011365 0 36.691084 8.538823 48.502355 23.431294 11.791792 14.86591 16.070057 33.994148 11.754605 52.465418z"  /></svg>