<svg viewBox="0 0 1024 1089.841" xmlns="http://www.w3.org/2000/svg"><path d="M75.366 113.198c-10.772 0-19.56 8.806-19.56 19.578v95.944h912.37v-95.944c0-10.772-8.787-19.578-19.558-19.578H633.364V64.253c0-17.235-14.08-31.333-31.333-31.333H425.846c-17.254 0-31.333 14.098-31.333 31.333v48.945H75.365zm52.856 166.434c-16.158 0-30.804 13.266-29.367 29.367l64.63 718.572c1.437 16.082 13.25 29.348 29.368 29.348h644.154c16.12 0 27.912-13.304 29.367-29.348L931.912 309c1.455-16.045-13.21-29.368-29.348-29.368h-774.34zm503.213 111.61h82.225V935.52h-82.225V391.243zm-325.024 0h82.226V935.52H306.41V391.243zm162.503 0h82.244V935.52h-82.244V391.243z"/></svg>